<?xml version="1.0" standalone="no"?>
<!DOCTYPE svg PUBLIC "-//W3C//DTD SVG 20010904//EN"
 "http://www.w3.org/TR/2001/REC-SVG-20010904/DTD/svg10.dtd">
<svg version="1.0" xmlns="http://www.w3.org/2000/svg"
 width="260.000000pt" height="260.000000pt" viewBox="0 0 260.000000 260.000000"
 preserveAspectRatio="xMidYMid meet">
<metadata>
Created by potrace 1.11, written by Peter Selinger 2001-2013
</metadata>
<g transform="translate(0.000000,260.000000) scale(0.100000,-0.100000)"
fill="#000000" stroke="none">
<path d="M1036 1787 c-88 -243 -215 -597 -283 -787 -69 -190 -136 -378 -150
-418 -16 -47 -32 -76 -46 -84 -12 -6 -23 -10 -25 -9 -1 2 -29 0 -62 -4 l-60
-7 0 -54 0 -54 283 0 283 0 -1 49 c0 27 -2 52 -5 54 -4 5 -73 13 -173 22 -15
1 -30 5 -33 8 -4 3 22 94 57 201 l63 196 391 -3 390 -2 64 -193 c35 -106 61
-195 59 -198 -8 -7 -33 -11 -125 -19 -46 -4 -83 -10 -84 -14 -4 -33 -4 -78 -1
-89 3 -9 74 -12 308 -12 l304 0 0 49 c0 28 -3 52 -8 55 -4 2 -28 7 -52 11 -65
9 -104 16 -106 18 -1 1 -27 74 -58 162 -32 88 -64 178 -73 200 -8 22 -37 101
-63 175 -26 74 -107 299 -180 500 -73 201 -154 426 -180 500 -26 74 -53 147
-59 163 l-11 27 -102 0 -103 0 -159 -443z m249 231 c10 -43 95 -302 185 -558
40 -113 89 -256 110 -317 l39 -113 -345 0 c-189 0 -344 2 -344 3 0 4 131 385
143 417 27 70 168 506 177 548 14 60 25 66 35 20z"/>
</g>
</svg>
